<svg width="32" height="32" viewBox="0 0 32 32" fill="none" xmlns="http://www.w3.org/2000/svg">
<path d="M24.7558 27.9709C22.6876 25.6395 19.6827 24.1724 16.3381 24.1724C12.9936 24.1724 9.98834 25.6395 7.92011 27.9709M16.3381 30.6871C8.31745 30.6871 1.81543 24.1245 1.81543 16.029C1.81543 7.93352 8.31745 1.37085 16.3381 1.37085C24.3588 1.37085 30.8608 7.93352 30.8608 16.029C30.8608 24.1245 24.3588 30.6871 16.3381 30.6871ZM16.3381 19.2863C13.6645 19.2863 11.4972 17.0989 11.4972 14.4003C11.4972 11.7018 13.6645 9.51425 16.3381 9.51425C19.0117 9.51425 21.179 11.7018 21.179 14.4003C21.179 17.0989 19.0117 19.2863 16.3381 19.2863Z" stroke="white" stroke-width="2" stroke-linecap="round" stroke-linejoin="round"/>
</svg>
