<svg width="24" height="16" viewBox="0 0 24 16" fill="none" xmlns="http://www.w3.org/2000/svg">
<path d="M20.2027 5.16973H19.8224L18.3369 2.06129C18.0719 1.50834 17.6156 1.03511 17.0261 0.701353C16.4379 0.367593 15.7439 0.189241 15.0332 0.188245H7.90283C7.07689 0.186252 6.27593 0.424369 5.63658 0.86274C4.99722 1.30011 4.55989 1.91082 4.39708 2.5893L3.77909 5.16973H3.56519C2.61923 5.16973 1.71248 5.48459 1.0446 6.04551C0.375531 6.60543 0 7.36557 0 8.15863V11.1475C0 11.4115 0.124781 11.6656 0.348199 11.8519C0.570429 12.0392 0.873471 12.1438 1.1884 12.1438H2.37679C2.37679 12.9369 2.75232 13.697 3.42139 14.2569C4.08927 14.8179 4.99602 15.1327 5.94198 15.1327C6.88794 15.1327 7.79469 14.8179 8.46257 14.2569C9.13164 13.697 9.50717 12.9369 9.50717 12.1438H14.2608C14.2608 12.9369 14.6363 13.697 15.3054 14.2569C15.9732 14.8179 16.88 15.1327 17.8259 15.1327C18.7719 15.1327 19.6787 14.8179 20.3465 14.2569C21.0156 13.697 21.3911 12.9369 21.3911 12.1438H22.5795C22.8945 12.1438 23.1975 12.0392 23.4197 11.8519C23.6431 11.6656 23.7679 11.4115 23.7679 11.1475V8.15863C23.7679 7.36557 23.3924 6.60543 22.7233 6.04551C22.0554 5.48459 21.1487 5.16973 20.2027 5.16973ZM13.0724 2.18084H15.0332C15.2697 2.18283 15.4991 2.24359 15.694 2.35518C15.8888 2.46677 16.0398 2.62519 16.1265 2.80851L17.2555 5.16973H13.0724V2.18084ZM6.72633 2.97787C6.78218 2.74971 6.93074 2.54448 7.14822 2.39902C7.3657 2.25356 7.63664 2.17586 7.91472 2.18084H10.6956V5.16973H6.20343L6.72633 2.97787ZM5.94198 13.1401C5.70668 13.1401 5.47732 13.0813 5.28123 12.9717C5.08634 12.8631 4.93421 12.7067 4.84389 12.5254C4.75357 12.3431 4.73102 12.1428 4.77618 11.9495C4.82253 11.7562 4.93541 11.5789 5.10178 11.4395C5.26816 11.3 5.47969 11.2053 5.71023 11.1664C5.94078 11.1286 6.17965 11.1475 6.39713 11.2232C6.61342 11.2989 6.79999 11.4265 6.92953 11.5898C7.06025 11.7542 7.13038 11.9465 7.13038 12.1438C7.13038 12.4078 7.0056 12.6619 6.78218 12.8482C6.55995 13.0355 6.25691 13.1401 5.94198 13.1401ZM17.8259 13.1401C17.5906 13.1401 17.3613 13.0813 17.1652 12.9717C16.9703 12.8631 16.8182 12.7067 16.7278 12.5254C16.6375 12.3431 16.615 12.1428 16.6601 11.9495C16.7065 11.7562 16.8194 11.5789 16.9857 11.4395C17.1521 11.3 17.3636 11.2053 17.5942 11.1664C17.8247 11.1286 18.0636 11.1475 18.2811 11.2232C18.4974 11.2989 18.684 11.4265 18.8135 11.5898C18.9442 11.7542 19.0143 11.9465 19.0143 12.1438C19.0143 12.4078 18.8896 12.6619 18.6661 12.8482C18.4439 13.0355 18.1409 13.1401 17.8259 13.1401ZM21.3911 10.1512H20.4642C20.1302 9.84336 19.7226 9.59627 19.2686 9.4279C18.8135 9.25952 18.3227 9.17286 17.8259 9.17286C17.3292 9.17286 16.8384 9.25952 16.3832 9.4279C15.9293 9.59627 15.5216 9.84336 15.1877 10.1512H8.58022C8.24628 9.84336 7.83865 9.59627 7.38468 9.4279C6.92952 9.25952 6.43873 9.17286 5.94198 9.17286C5.44523 9.17286 4.95444 9.25952 4.49928 9.4279C4.04531 9.59627 3.63768 9.84336 3.30374 10.1512H2.37679V8.15863C2.37679 7.89461 2.50157 7.64058 2.72499 7.45427C2.94722 7.26697 3.25026 7.16233 3.56519 7.16233H20.2027C20.5177 7.16233 20.8207 7.26697 21.0429 7.45427C21.2663 7.64058 21.3911 7.89461 21.3911 8.15863V10.1512Z" fill="#FF601F"/>
</svg>

