<svg width="19" height="21" viewBox="0 0 19 21" fill="none" xmlns="http://www.w3.org/2000/svg">
<path d="M18.8142 8.11556C18.6577 6.60128 18.0853 5.15023 17.1513 3.90439C16.2173 2.65855 14.9538 1.6594 13.484 1.00539C12.0142 0.350336 10.388 0.0632027 8.76397 0.169959C7.13886 0.277752 5.57256 0.776291 4.2159 1.61687C3.05003 2.34551 2.07163 3.30529 1.35059 4.42883C0.629554 5.5534 0.183617 6.81168 0.0449562 8.11556C-0.0914864 9.41115 0.0837888 10.7182 0.555237 11.9422C1.02779 13.1673 1.78544 14.2784 2.77382 15.1947L8.65305 20.6983C8.75622 20.7958 8.87824 20.8725 9.01357 20.9253C9.1489 20.9782 9.29422 21.0051 9.44064 21.0051C9.58707 21.0051 9.73239 20.9782 9.86661 20.9253C10.0019 20.8725 10.1251 20.7958 10.2282 20.6983L16.0853 15.1947C17.0737 14.2784 17.8313 13.1673 18.3039 11.9422C18.7753 10.7182 18.9495 9.41115 18.8142 8.11556ZM14.5323 13.7332L9.42955 18.501L4.32682 13.7332C3.57472 13.0305 2.999 12.1806 2.63959 11.2457C2.28129 10.3098 2.14928 9.31166 2.25245 8.32287C2.35672 7.31853 2.69838 6.3484 3.25192 5.48295C3.80656 4.61749 4.55977 3.87743 5.45829 3.3167C6.63525 2.58598 8.01632 2.19628 9.42955 2.19628C10.8428 2.19628 12.2239 2.58598 13.4008 3.3167C14.296 3.87535 15.0481 4.61124 15.6016 5.47358C16.1563 6.33593 16.4991 7.30192 16.6067 8.30212C16.7132 9.29402 16.5823 10.2963 16.224 11.2364C15.8645 12.1754 15.2877 13.0284 14.5323 13.7332ZM9.42955 4.35317C8.44229 4.35317 7.4772 4.62679 6.65633 5.13881C5.83546 5.65186 5.19539 6.38052 4.81712 7.2325C4.43996 8.08448 4.34124 9.02246 4.53315 9.9273C4.72616 10.8321 5.20204 11.6634 5.89979 12.3153C6.59753 12.9673 7.48718 13.4119 8.45559 13.5923C9.424 13.7716 10.4279 13.6794 11.3398 13.327C12.2516 12.9735 13.0314 12.3755 13.5794 11.6085C14.1285 10.8415 14.4214 9.93974 14.4214 9.01728C14.418 7.78078 13.8911 6.59607 12.956 5.72233C12.0209 4.84858 10.7529 4.35628 9.42955 4.35317ZM9.42955 11.6085C8.88046 11.6085 8.34466 11.4561 7.88874 11.1721C7.43282 10.8871 7.07675 10.4828 6.8671 10.0092C6.65744 9.53549 6.60198 9.0142 6.70958 8.51151C6.81607 8.00882 7.08007 7.54756 7.46832 7.1848C7.85658 6.82307 8.35021 6.57637 8.88821 6.47583C9.42622 6.37633 9.9842 6.42715 10.4911 6.62304C10.997 6.81997 11.4307 7.15166 11.7358 7.57765C12.0397 8.00364 12.2028 8.50527 12.2028 9.01728C12.2028 9.70446 11.9099 10.3637 11.3908 10.8498C10.8705 11.3359 10.165 11.6085 9.42955 11.6085Z" fill="#FF601F"/>
</svg>
