<svg width="24" height="23" viewBox="0 0 24 23" fill="none" xmlns="http://www.w3.org/2000/svg">
<path d="M11.9343 18.6309C12.1706 18.6309 12.401 18.5721 12.5979 18.4625C12.7936 18.3539 12.9463 18.1975 13.037 18.0161C13.1277 17.8338 13.1504 17.6336 13.1051 17.4403C13.0585 17.247 12.9451 17.0697 12.778 16.9302C12.6109 16.7907 12.3986 16.696 12.167 16.6572C11.9355 16.6193 11.6956 16.6383 11.4772 16.714C11.26 16.7897 11.0727 16.9172 10.9426 17.0806C10.8113 17.245 10.7409 17.4373 10.7409 17.6346C10.7409 17.8986 10.8662 18.1526 11.0906 18.3389C11.3138 18.5262 11.618 18.6309 11.9343 18.6309ZM17.9015 18.6309C18.1378 18.6309 18.3681 18.5721 18.565 18.4625C18.7608 18.3539 18.9135 18.1975 19.0042 18.0161C19.0949 17.8338 19.1176 17.6336 19.0722 17.4403C19.0257 17.247 18.9123 17.0697 18.7452 16.9302C18.5781 16.7907 18.3657 16.696 18.1342 16.6572C17.9027 16.6193 17.6628 16.6383 17.4444 16.714C17.2272 16.7897 17.0398 16.9172 16.9097 17.0806C16.7784 17.245 16.708 17.4373 16.708 17.6346C16.708 17.8986 16.8334 18.1526 17.0577 18.3389C17.2809 18.5262 17.5852 18.6309 17.9015 18.6309ZM17.9015 14.6457C18.1378 14.6457 18.3681 14.5869 18.565 14.4773C18.7608 14.3687 18.9135 14.2123 19.0042 14.031C19.0949 13.8486 19.1176 13.6484 19.0722 13.4551C19.0257 13.2618 18.9123 13.0845 18.7452 12.945C18.5781 12.8055 18.3657 12.7109 18.1342 12.672C17.9027 12.6341 17.6628 12.6531 17.4444 12.7288C17.2272 12.8045 17.0398 12.932 16.9097 13.0954C16.7784 13.2598 16.708 13.4521 16.708 13.6494C16.708 13.9134 16.8334 14.1674 17.0577 14.3537C17.2809 14.541 17.5852 14.6457 17.9015 14.6457ZM11.9343 14.6457C12.1706 14.6457 12.401 14.5869 12.5979 14.4773C12.7936 14.3687 12.9463 14.2123 13.037 14.031C13.1277 13.8486 13.1504 13.6484 13.1051 13.4551C13.0585 13.2618 12.9451 13.0845 12.778 12.945C12.6109 12.8055 12.3986 12.7109 12.167 12.672C11.9355 12.6341 11.6956 12.6531 11.4772 12.7288C11.26 12.8045 11.0727 12.932 10.9426 13.0954C10.8113 13.2598 10.7409 13.4521 10.7409 13.6494C10.7409 13.9134 10.8662 14.1674 11.0906 14.3537C11.3138 14.541 11.618 14.6457 11.9343 14.6457ZM20.2883 2.69011H19.0949V1.69381C19.0949 1.42979 18.9695 1.17576 18.7452 0.989455C18.522 0.802151 18.2177 0.69751 17.9015 0.69751C17.5852 0.69751 17.2809 0.802151 17.0577 0.989455C16.8334 1.17576 16.708 1.42979 16.708 1.69381V2.69011H7.16058V1.69381C7.16058 1.42979 7.03524 1.17576 6.81087 0.989455C6.5877 0.802151 6.28341 0.69751 5.96715 0.69751C5.65089 0.69751 5.3466 0.802151 5.12343 0.989455C4.89907 1.17576 4.77372 1.42979 4.77372 1.69381V2.69011H3.58029C2.63032 2.69011 1.71977 3.00496 1.04906 3.56588C0.377158 4.1258 0 4.88595 0 5.679V19.6272C0 20.4202 0.377158 21.1804 1.04906 21.7403C1.71977 22.3012 2.63032 22.6161 3.58029 22.6161H20.2883C21.2383 22.6161 22.1488 22.3012 22.8195 21.7403C23.4914 21.1804 23.8686 20.4202 23.8686 19.6272V5.679C23.8686 4.88595 23.4914 4.1258 22.8195 3.56588C22.1488 3.00496 21.2383 2.69011 20.2883 2.69011ZM21.4817 19.6272C21.4817 19.8912 21.3564 20.1452 21.132 20.3315C20.9089 20.5188 20.6046 20.6235 20.2883 20.6235H3.58029C3.26403 20.6235 2.95974 20.5188 2.73657 20.3315C2.51221 20.1452 2.38686 19.8912 2.38686 19.6272V10.6605H21.4817V19.6272ZM21.4817 8.66789H2.38686V5.679C2.38686 5.41498 2.51221 5.16095 2.73657 4.97465C2.95974 4.78734 3.26403 4.6827 3.58029 4.6827H4.77372V5.679C4.77372 5.94302 4.89907 6.19704 5.12343 6.38335C5.3466 6.57066 5.65089 6.6753 5.96715 6.6753C6.28341 6.6753 6.5877 6.57066 6.81087 6.38335C7.03524 6.19704 7.16058 5.94302 7.16058 5.679V4.6827H16.708V5.679C16.708 5.94302 16.8334 6.19704 17.0577 6.38335C17.2809 6.57066 17.5852 6.6753 17.9015 6.6753C18.2177 6.6753 18.522 6.57066 18.7452 6.38335C18.9695 6.19704 19.0949 5.94302 19.0949 5.679V4.6827H20.2883C20.6046 4.6827 20.9089 4.78734 21.132 4.97465C21.3564 5.16095 21.4817 5.41498 21.4817 5.679V8.66789ZM5.96715 14.6457C6.20345 14.6457 6.43382 14.5869 6.63073 14.4773C6.82646 14.3687 6.97919 14.2123 7.06989 14.031C7.16059 13.8486 7.18328 13.6484 7.13793 13.4551C7.09138 13.2618 6.97795 13.0845 6.81087 12.945C6.64379 12.8055 6.4314 12.7109 6.19988 12.672C5.96835 12.6341 5.72847 12.6531 5.51007 12.7288C5.29287 12.8045 5.1055 12.932 4.97542 13.0954C4.84414 13.2598 4.77372 13.4521 4.77372 13.6494C4.77372 13.9134 4.89907 14.1674 5.12343 14.3537C5.3466 14.541 5.65089 14.6457 5.96715 14.6457ZM5.96715 18.6309C6.20345 18.6309 6.43382 18.5721 6.63073 18.4625C6.82646 18.3539 6.97919 18.1975 7.06989 18.0161C7.16059 17.8338 7.18328 17.6336 7.13793 17.4403C7.09138 17.247 6.97795 17.0697 6.81087 16.9302C6.64379 16.7907 6.4314 16.696 6.19988 16.6572C5.96835 16.6193 5.72847 16.6383 5.51007 16.714C5.29287 16.7897 5.1055 16.9172 4.97542 17.0806C4.84414 17.245 4.77372 17.4373 4.77372 17.6346C4.77372 17.8986 4.89907 18.1526 5.12343 18.3389C5.3466 18.5262 5.65089 18.6309 5.96715 18.6309Z" fill="#FF601F"/>
</svg>
