<svg width="17" height="9" viewBox="0 0 17 9" fill="none" xmlns="http://www.w3.org/2000/svg">
<path d="M8.79519 8.64187C8.58722 8.64287 8.38041 8.60899 8.1867 8.54324C7.99418 8.47748 7.8183 8.37982 7.66975 8.25628L1.33202 2.94308C1.03374 2.69301 0.866211 2.35325 0.866211 1.99956C0.866211 1.64588 1.03374 1.30715 1.33202 1.05708C1.63031 0.807011 2.03558 0.666504 2.45746 0.666504C2.87934 0.666504 3.28338 0.807011 3.58166 1.05708L8.79519 5.44075L14.0087 1.07003C14.3117 0.852841 14.7015 0.739256 15.0996 0.751211C15.4989 0.764163 15.8769 0.903598 16.1597 1.13972C16.4414 1.37584 16.6065 1.69371 16.622 2.02747C16.6374 2.36223 16.502 2.68902 16.2429 2.94308L9.90394 8.25628C9.60922 8.50237 9.21112 8.64088 8.79519 8.64187Z" fill="#313131"/>
<path d="M8.79519 8.64187C8.58722 8.64287 8.38041 8.60899 8.1867 8.54324C7.99418 8.47748 7.8183 8.37982 7.66975 8.25628L1.33202 2.94308C1.03374 2.69301 0.866211 2.35325 0.866211 1.99956C0.866211 1.64588 1.03374 1.30715 1.33202 1.05708C1.63031 0.807011 2.03558 0.666504 2.45746 0.666504C2.87934 0.666504 3.28338 0.807011 3.58166 1.05708L8.79519 5.44075L14.0087 1.07003C14.3117 0.852841 14.7015 0.739256 15.0996 0.751211C15.4989 0.764163 15.8769 0.903598 16.1597 1.13972C16.4414 1.37584 16.6065 1.69371 16.622 2.02747C16.6374 2.36223 16.502 2.68902 16.2429 2.94308L9.90394 8.25628C9.60922 8.50237 9.21112 8.64088 8.79519 8.64187Z" fill="#313131"/>
</svg>
